<?xml version="1.0" encoding="utf-8"?>
<!-- Generator: Adobe Illustrator 16.0.3, SVG Export Plug-In . SVG Version: 6.00 Build 0)  -->
<!DOCTYPE svg PUBLIC "-//W3C//DTD SVG 1.1//EN" "http://www.w3.org/Graphics/SVG/1.1/DTD/svg11.dtd">
<svg version="1.1" id="Capa_1" xmlns="http://www.w3.org/2000/svg" xmlns:xlink="http://www.w3.org/1999/xlink" x="0px" y="0px"
	 width="32px" height="32px" viewBox="0 0 32 32" enable-background="new 0 0 32 32" xml:space="preserve">
<g>
	<g id="Capa_2">
		<g>
			<path stroke="#000000" stroke-width="0.0948" stroke-miterlimit="10" d="M13.439,16.994c0.734,0,1.431,0.099,1.821,0.015
				c-0.163-2.12-0.244-3.877-0.244-5.272l0.005-0.679c-0.117,0.254-0.38,0.804-0.787,1.648c-0.737,1.539-1.277,2.883-1.622,4.031
				l-0.601,1.765c-0.446,1.418-0.669,2.519-0.669,3.298c0,0.229,0.051,0.452,0.154,0.67c-0.084,0.049-0.276,0.166-0.574,0.354
				c-0.138,0.084-0.269,0.126-0.393,0.126c-0.248,0-0.372-0.202-0.372-0.605c0-0.84,0.306-2.121,0.919-3.842l0.165-0.461h-0.271
				c-0.581,0-1.031,0.154-1.35,0.461c0.167-1.021,0.615-1.53,1.346-1.53l0.658,0.027l0.144-0.363
				c0.556-1.424,1.407-3.341,2.551-5.75c0.387-0.815,0.676-1.322,0.867-1.521c0.19-0.199,0.562-0.381,1.11-0.544
				c-0.103,1.087-0.154,2.099-0.154,3.035c0,2.48,0.169,4.996,0.505,7.543c0.184,1.402,0.466,2.305,0.845,2.709
				c-0.333,0.562-0.618,0.842-0.855,0.842c-0.56,0-0.993-1.636-1.297-4.908c-0.584,0.108-1.653-0.032-2.249-0.032L13.439,16.994z"/>
			<path stroke="#000000" stroke-width="0.0948" stroke-miterlimit="10" d="M19.912,16.879l-0.468,3.969
				c-0.067,0.573-0.103,0.944-0.103,1.112c0,0.17,0.024,0.35,0.07,0.543c-0.362,0.308-0.686,0.461-0.973,0.461
				c-0.182,0-0.273-0.126-0.273-0.381c0-0.132,0.035-0.509,0.104-1.129l0.553-4.738c-0.887-0.345-1.33-0.851-1.33-1.52
				c0-0.139,0.019-0.317,0.053-0.534c0.378,0.536,0.836,0.925,1.374,1.166l0.305-2.094l1.084-0.356L19.912,16.879z M21.123,15.8
				c0.503-0.207,0.982-0.588,1.359-1.092c0.639-0.855,0.959-1.953,0.959-3.291c0-0.735-0.167-1.327-0.502-1.777
				c-0.335-0.449-0.776-0.673-1.327-0.673c-1.639,0-2.954,1.182-3.945,3.544c-0.085-0.374-0.127-0.666-0.127-0.877
				c0-0.911,0.475-1.759,1.422-2.545c0.948-0.787,1.973-1.18,3.077-1.18c1.674,0,2.512,1.061,2.512,3.183
				c0,1.55-0.436,2.903-1.305,4.06c-0.624,0.831-1.646,1.495-2.42,1.73L21.123,15.8z"/>
			<path stroke="#000000" stroke-width="0.0948" stroke-miterlimit="10" d="M27.224,17.096l-0.094,0.742
				c-0.114,0.966-0.171,1.651-0.171,2.055c0,0.804,0.456,1.205,1.371,1.205c0.907,0,1.706-0.274,2.397-0.823
				c-0.159,0.906-0.423,1.464-0.792,1.675c-0.223,0.126-0.611,0.259-1.164,0.395c-0.554,0.137-0.978,0.205-1.275,0.205
				c-1.158,0-1.738-0.657-1.738-1.967c0-0.351,0.15-1.636,0.264-2.632L27.224,17.096z M26.283,15.51h-0.079
				c-0.358,0-0.705,0.134-1.042,0.399c0.194-0.652,0.355-1.069,0.481-1.25c0.125-0.181,0.324-0.272,0.598-0.272h0.175l0.244-1.747
				l1.173-0.812l-0.303,2.559h1.1c0.768,0,1.381-0.166,1.839-0.499c-0.243,0.767-0.457,1.229-0.645,1.386
				c-0.188,0.157-0.629,0.235-1.321,0.235h-1.101H26.283L26.283,15.51z M26.937,9.922h-0.153c-0.656,0-1.264,0.356-1.823,1.068
				c0.179-0.966,0.42-1.589,0.729-1.866c0.24-0.211,0.982-0.317,2.228-0.317h1.585c0.997,0,1.811-0.168,2.433-0.506
				c-0.279,0.754-0.528,1.213-0.745,1.376c-0.217,0.163-0.69,0.245-1.414,0.245h-1.716H26.937z"/>
		</g>
		<g>
			<path stroke="#000000" stroke-width="0.0948" stroke-miterlimit="10" d="M6.496,13.787c-0.151,0.531-0.246,1.104-0.286,1.719
				c0.009-0.032,0.534-1.827,0.996-3.2C6.913,12.673,6.674,13.162,6.496,13.787z"/>
			<path stroke="#000000" stroke-width="0.0948" stroke-miterlimit="10" d="M6.713,8.77c0.061-0.098,0.285-0.244,0.437-0.309
				C6.789,8.566,6.374,9.05,6.374,9.05s-0.56,0.704-0.856,1.468c-0.069,0.179-0.119,0.36-0.173,0.529
				c0.137-0.374,0.284-0.724,0.435-1.035C6.153,9.239,6.713,8.77,6.713,8.77z"/>
			<path stroke="#000000" stroke-width="0.0948" stroke-miterlimit="10" d="M6.446,18.229c0.171,0.569,0.404,1.011,0.696,1.32
				c0.069,0.073,0.142,0.136,0.218,0.192c-0.629-2.217-1.143-4.201-1.15-4.23c-0.014,0.217-0.022,0.439-0.022,0.667
				C6.188,16.975,6.273,17.658,6.446,18.229z"/>
			<path stroke="#000000" stroke-width="0.0948" stroke-miterlimit="10" d="M4.852,12.727c0.027-0.124,0.057-0.249,0.088-0.371
				c-0.124-0.536-0.29-1.166-0.498-1.892C4.232,9.738,4.049,9.063,3.895,8.44c0,0-3.464-3.756-3.918-3.771
				C0.94,7.827,3.382,15.279,3.382,15.279C3.058,16.225,0.412,25.425,0,26.484c0.518-0.014,3.001-3.39,3.001-3.39
				c0.239-0.744,0.516-1.571,0.83-2.479c0.313-0.909,0.539-1.613,0.676-2.114c0.04,0.16,0.083,0.326,0.125,0.493
				c-0.153-0.849-0.231-1.793-0.231-2.837C4.401,14.892,4.629,13.737,4.852,12.727z"/>
			<path stroke="#000000" stroke-width="0.0948" stroke-miterlimit="10" d="M5.475,21.375c-0.199-0.41-0.383-0.809-0.537-1.234
				c0.069,0.255,0.211,0.53,0.294,0.719c0.015,0.033,0.806,1.526,0.806,1.526s0.534,0.69,0.96,0.689
				c-0.213-0.065-0.419-0.162-0.614-0.307C6.157,22.602,5.886,22.221,5.475,21.375z"/>
			<path stroke="#000000" stroke-width="0.0948" stroke-miterlimit="10" d="M8.227,20.017c-0.329,0-0.618-0.092-0.867-0.275
				c0.323,1.136,0.675,2.331,1.006,3.354c-0.563,0.098-1.223-0.021-1.252-0.021c-0.039,0-0.076,0.002-0.115,0.002
				c0.281,0.087,0.629,0.117,0.934,0.117c0.556,0,0.774-0.11,1.482-0.334c0.02-0.405,0.579-3.018,0.619-3.43
				c-0.417,0.23-0.764,0.387-1.04,0.467C8.716,19.977,8.461,20.017,8.227,20.017z"/>
			<path stroke="#000000" stroke-width="0.0948" stroke-miterlimit="10" d="M6.209,15.511c0-0.001,0-0.002,0-0.005l-0.001,0.003
				L6.209,15.511z"/>
			<path stroke="#000000" stroke-width="0.0948" stroke-miterlimit="10" d="M5.344,11.047c-0.15,0.411-0.289,0.852-0.404,1.309
				c0,0.001,0,0.002,0,0.003C5.047,11.989,5.181,11.552,5.344,11.047z"/>
			<path stroke="#000000" stroke-width="0.0948" stroke-miterlimit="10" d="M4.649,19.093c0.071,0.379,0.171,0.722,0.289,1.048
				c-0.109-0.397-0.211-0.781-0.306-1.146C4.639,19.026,4.643,19.063,4.649,19.093z"/>
			<path stroke="#000000" stroke-width="0.0948" stroke-miterlimit="10" d="M8.592,8.44c-0.253,0.737-0.63,1.782-1.131,3.136
				c-0.079,0.216-0.166,0.466-0.255,0.729c0.044-0.055,0.086-0.115,0.133-0.165c0.356-0.377,0.759-0.566,1.205-0.566
				c0.205,0,0.428,0.035,0.667,0.104c0.24,0.071,0.554,0.204,0.939,0.399L9.535,8.733C8.815,8.467,8.75,8.335,8.261,8.335
				c-0.373,0-0.756-0.026-1.111,0.126c0.075,0,0.164-0.077,0.241-0.077C7.676,8.384,8.092,8.333,8.592,8.44z"/>
		</g>
	</g>
</g>
</svg>
