<?xml version="1.0" encoding="utf-8"?>
<!-- Generator: Adobe Illustrator 16.0.3, SVG Export Plug-In . SVG Version: 6.00 Build 0)  -->
<!DOCTYPE svg PUBLIC "-//W3C//DTD SVG 1.1//EN" "http://www.w3.org/Graphics/SVG/1.1/DTD/svg11.dtd">
<?xml-stylesheet type="text/css" href="../css/main.css"?>
<svg class="colorear" version="1.1" id="Capa_1" xmlns="http://www.w3.org/2000/svg" xmlns:xlink="http://www.w3.org/1999/xlink" x="0px" y="0px"
	 width="217.008px" height="107.953px" viewBox="0 0 217.008 107.953" enable-background="new 0 0 217.008 107.953"
	 xml:space="preserve">
<g id="Capa_2" class="colorearBlanco" >
	<g>
		<path stroke="white" stroke-miterlimit="10" d="M91.835,60.735c4.965,0,9.687,0.495,12.325,0.073
			c-1.104-10.543-1.655-19.284-1.655-26.221l0.036-3.38c-0.791,1.262-2.567,3.996-5.324,8.2c-4.988,7.66-8.647,14.343-10.974,20.05
			l-4.065,8.786c-3.022,7.058-4.533,12.523-4.533,16.401c0,1.141,0.349,2.252,1.044,3.332c-0.575,0.242-1.871,0.828-3.886,1.758
			c-0.936,0.42-1.823,0.629-2.662,0.629c-1.68,0-2.519-1.006-2.519-3.018c0-4.174,2.074-10.542,6.224-19.102l1.115-2.299h-1.835
			c-3.935,0-6.979,0.766-9.138,2.299c1.127-5.076,4.16-7.615,9.103-7.615l4.461,0.136l0.972-1.802
			c3.765-7.088,9.521-16.625,17.269-28.61c2.614-4.056,4.569-6.578,5.864-7.57c1.296-0.99,3.801-1.892,7.519-2.703
			c-0.696,5.406-1.043,10.438-1.043,15.094c0,12.344,1.139,24.855,3.418,37.53c1.247,6.969,3.152,11.46,5.72,13.472
			c-2.254,2.793-4.186,4.189-5.792,4.189c-3.79,0-6.715-8.139-8.777-24.42c-3.958,0.541-11.191-0.158-15.221-0.158L91.835,60.735z"
			/>
		<path stroke="white" stroke-miterlimit="10" d="M135.644,60.165l-3.172,19.747c-0.456,2.85-0.684,4.694-0.684,5.534
			c0,0.838,0.154,1.736,0.463,2.699c-2.442,1.527-4.637,2.293-6.58,2.293c-1.231,0-1.85-0.631-1.85-1.891
			c0-0.658,0.239-2.533,0.71-5.622l3.736-23.57c-5.998-1.71-8.997-4.229-8.997-7.557c0-0.689,0.119-1.574,0.354-2.654
			c2.557,2.668,5.658,4.601,9.304,5.799l2.055-10.413l7.351-1.771L135.644,60.165z M143.833,54.804
			c3.403-1.031,6.652-2.93,9.2-5.436c4.328-4.257,6.493-9.715,6.493-16.373c0-3.658-1.133-6.604-3.395-8.839
			c-2.264-2.232-5.259-3.351-8.98-3.351c-11.097,0-19.998,5.878-26.709,17.632c-0.568-1.858-0.854-3.312-0.854-4.363
			c0-4.528,3.206-8.749,9.62-12.663c6.414-3.914,13.354-5.87,20.821-5.87c11.333,0,17,5.28,17,15.833
			c0,7.709-2.941,14.44-8.823,20.197c-4.224,4.135-11.145,7.438-16.387,8.605L143.833,54.804z"/>
		<path stroke="white" stroke-miterlimit="10" d="M185.13,61.242l-0.643,3.693c-0.767,4.807-1.153,8.217-1.153,10.229
			c0,3.994,3.093,5.992,9.282,5.992c6.139,0,11.547-1.367,16.225-4.101c-1.08,4.505-2.866,7.285-5.362,8.335
			c-1.509,0.631-4.135,1.283-7.877,1.961c-3.742,0.674-6.619,1.014-8.634,1.014c-7.845,0-11.765-3.26-11.765-9.778
			c0-1.742,1.019-8.137,1.788-13.092L185.13,61.242z M178.763,53.356h-0.538c-2.423,0-4.773,0.662-7.051,1.983
			c1.319-3.244,2.404-5.316,3.255-6.218c0.852-0.901,2.201-1.352,4.049-1.352h1.188l1.648-8.686l7.938-4.04l-2.05,12.726h7.441
			c5.2,0,9.344-0.827,12.437-2.479c-1.634,3.815-3.081,6.112-4.352,6.895c-1.271,0.781-4.256,1.17-8.95,1.17h-7.444L178.763,53.356
			L178.763,53.356z M183.19,25.558h-1.043c-4.438,0-8.551,1.773-12.341,5.317c1.2-4.805,2.842-7.9,4.928-9.281
			c1.634-1.052,6.657-1.578,15.076-1.578h10.72c6.764,0,12.258-0.84,16.479-2.522c-1.892,3.754-3.576,6.037-5.048,6.847
			c-1.475,0.812-4.667,1.217-9.576,1.217h-11.604H183.19z"/>
	</g>
	<g>
		<path stroke="white" stroke-miterlimit="10" d="M44.835,44.788c-1.024,2.64-1.663,5.491-1.932,8.548
			c0.063-0.16,3.612-9.092,6.739-15.917C47.659,39.245,46.04,41.676,44.835,44.788z"/>
		<path stroke="white" stroke-miterlimit="10" d="M46.312,19.827c0.407-0.484,1.923-1.21,2.95-1.535
			c-2.437,0.523-5.249,2.929-5.249,2.929s-3.792,3.504-5.799,7.303c-0.47,0.888-0.804,1.793-1.173,2.634
			c0.926-1.861,1.921-3.603,2.943-5.151C42.523,22.164,46.312,19.827,46.312,19.827z"/>
		<path stroke="white" stroke-miterlimit="10" d="M44.499,66.879c1.163,2.835,2.736,5.026,4.716,6.572
			c0.463,0.361,0.956,0.672,1.47,0.948c-4.259-11.021-7.735-20.895-7.785-21.037c-0.094,1.08-0.146,2.185-0.146,3.317
			C42.753,60.645,43.335,64.044,44.499,66.879z"/>
		<path stroke="white" stroke-miterlimit="10" d="M33.715,39.512c0.186-0.619,0.385-1.236,0.595-1.847
			c-0.835-2.667-1.959-5.802-3.374-9.408c-1.419-3.613-2.652-6.969-3.701-10.067c0,0-23.445-18.685-26.521-18.757
			C7.244,15.136,23.766,52.21,23.766,52.21c-2.194,4.699-20.102,50.473-22.892,55.743c3.505-0.072,20.316-16.861,20.316-16.861
			c1.621-3.703,3.492-7.814,5.614-12.338c2.122-4.521,3.647-8.028,4.578-10.521c0.27,0.8,0.556,1.622,0.847,2.455
			c-1.039-4.224-1.57-8.918-1.57-14.11C30.658,50.283,32.204,44.539,33.715,39.512z"/>
		<path stroke="white" stroke-miterlimit="10" d="M37.927,82.529c-1.347-2.037-2.595-4.018-3.634-6.139
			c0.473,1.268,1.429,2.642,1.989,3.573c0.104,0.173,5.46,7.591,5.46,7.591s3.615,3.443,6.495,3.439
			c-1.443-0.328-2.837-0.809-4.157-1.527C42.549,88.635,40.712,86.74,37.927,82.529z"/>
		<path stroke="white" stroke-miterlimit="10" d="M56.551,75.773c-2.23,0-4.183-0.463-5.867-1.373
			c2.184,5.65,4.57,11.598,6.807,16.69c-3.815,0.484-8.269-0.102-8.477-0.105c-0.262-0.006-0.516,0.008-0.776,0.008
			c1.904,0.432,4.258,0.584,6.32,0.584c3.76,0,5.236-0.553,10.025-1.666c0.134-2.012,3.919-15.012,4.188-17.058
			c-2.82,1.146-5.166,1.922-7.034,2.32C59.868,75.574,58.139,75.773,56.551,75.773z"/>
		<path stroke="white" stroke-miterlimit="10" d="M42.9,53.363c0.001-0.009,0.003-0.018,0.004-0.027
			c-0.001,0.002-0.008,0.018-0.008,0.018L42.9,53.363z"/>
		<path stroke="white" stroke-miterlimit="10" d="M37.04,31.158c-1.018,2.044-1.951,4.236-2.731,6.507
			c0.002,0.007,0.004,0.013,0.006,0.019C35.03,35.842,35.939,33.668,37.04,31.158z"/>
		<path stroke="white" stroke-miterlimit="10" d="M32.337,71.182c0.484,1.884,1.16,3.587,1.956,5.208
			c-0.738-1.979-1.428-3.882-2.063-5.703C32.269,70.849,32.296,71.022,32.337,71.182z"/>
		<path stroke="white" stroke-miterlimit="10" d="M59.029,18.19c-1.717,3.667-4.269,8.866-7.653,15.595
			c-0.542,1.078-1.131,2.32-1.731,3.633c0.298-0.275,0.582-0.575,0.897-0.82c2.418-1.878,5.137-2.816,8.158-2.816
			c1.388,0,2.892,0.174,4.516,0.521c1.621,0.348,3.742,1.009,6.361,1.983L65.41,19.644c-4.879-1.322-5.313-1.982-8.625-1.982
			c-2.523,0-5.123-0.128-7.522,0.63c0.509,0.001,1.108-0.384,1.631-0.384C52.825,17.908,55.645,17.657,59.029,18.19z"/>
	</g>
</g>
</svg>
